<?xml version="1.0" encoding="UTF-8" standalone="no"?>
<svg
   viewBox="0 0 48 48"
   width="240px"
   height="240px"
   version="1.1"
   id="svg12"
   sodipodi:docname="icons8-hard-drive-vmware.svg"
   inkscape:export-filename="icons8-hard-drive.png"
   inkscape:export-xdpi="96"
   inkscape:export-ydpi="96"
   inkscape:version="1.3.2 (091e20ef0f, 2023-11-25, custom)"
   xmlns:inkscape="http://www.inkscape.org/namespaces/inkscape"
   xmlns:sodipodi="http://sodipodi.sourceforge.net/DTD/sodipodi-0.dtd"
   xmlns="http://www.w3.org/2000/svg"
   xmlns:svg="http://www.w3.org/2000/svg">
  <defs
     id="defs12" />
  <sodipodi:namedview
     id="namedview12"
     pagecolor="#ffffff"
     bordercolor="#666666"
     borderopacity="1.0"
     inkscape:showpageshadow="2"
     inkscape:pageopacity="0.0"
     inkscape:pagecheckerboard="0"
     inkscape:deskcolor="#d1d1d1"
     inkscape:zoom="3.4625"
     inkscape:cx="120"
     inkscape:cy="120"
     inkscape:window-width="1920"
     inkscape:window-height="1019"
     inkscape:window-x="1920"
     inkscape:window-y="31"
     inkscape:window-maximized="1"
     inkscape:current-layer="svg12" />
  <linearGradient
     id="yOIoQFQSxgltO8Uv2xJFsa"
     x1="24"
     x2="24"
     y1="30.083"
     y2="42.5"
     gradientUnits="userSpaceOnUse"
     gradientTransform="matrix(0.94610505,0,0,0.94610505,0.32334676,0.32336969)">
    <stop
       offset="0"
       stop-color="#c3cdd9"
       id="stop1" />
    <stop
       offset="1"
       stop-color="#9fa7b0"
       id="stop2" />
  </linearGradient>
  <path
     fill="url(#yOIoQFQSxgltO8Uv2xJFsa)"
     d="M 40.059759,28.706521 H 5.9999771 v 9.461051 c 0,1.045446 0.846764,1.89221 1.8922101,1.89221 H 38.167549 c 1.045446,0 1.89221,-0.846764 1.89221,-1.89221 z"
     id="path2"
     style="fill:url(#yOIoQFQSxgltO8Uv2xJFsa);stroke-width:0.946105" />
  <linearGradient
     id="yOIoQFQSxgltO8Uv2xJFsb"
     x1="24"
     x2="24"
     y1="6"
     y2="31.799"
     gradientUnits="userSpaceOnUse"
     gradientTransform="matrix(0.94610505,0,0,0.94610505,0.32334676,0.32336969)">
    <stop
       offset="0"
       stop-color="#737b80"
       id="stop3" />
    <stop
       offset="1"
       stop-color="#575c61"
       id="stop4" />
  </linearGradient>
  <path
     fill="url(#yOIoQFQSxgltO8Uv2xJFsb)"
     d="m 10.507222,6 h 25.044346 c 0.953674,0 1.75881,0.7095788 1.877073,1.6566299 l 2.617872,20.8332331 c 0.130563,1.123027 -0.748369,2.108868 -1.878964,2.108868 H 7.8921872 c -1.1305956,0 -2.0095272,-0.985841 -1.8799108,-2.108868 L 8.6301491,7.6566299 C 8.7493583,6.7095788 9.5535476,6 10.507222,6 Z"
     id="path4"
     style="fill:url(#yOIoQFQSxgltO8Uv2xJFsb);stroke-width:0.946105" />
  <path
     d="m 33.437024,33.437046 c 1.045446,0 1.89221,0.846765 1.89221,1.892211 0,1.045446 -0.846764,1.89221 -1.89221,1.89221 -1.045447,0 -1.892211,-0.846764 -1.892211,-1.89221 0,-1.045446 0.846764,-1.892211 1.892211,-1.892211 m 0,-0.946105 c -1.564858,0 -2.838316,1.273458 -2.838316,2.838316 0,1.564857 1.273458,2.838315 2.838316,2.838315 1.564857,0 2.838315,-1.273458 2.838315,-2.838315 0,-1.564858 -1.273458,-2.838316 -2.838315,-2.838316 z"
     opacity="0.05"
     id="path5"
     style="stroke-width:0.946105" />
  <path
     d="m 33.437024,33.437046 c 1.045446,0 1.89221,0.846765 1.89221,1.892211 0,1.045446 -0.846764,1.89221 -1.89221,1.89221 -1.045447,0 -1.892211,-0.846764 -1.892211,-1.89221 0,-1.045446 0.846764,-1.892211 1.892211,-1.892211 m 0,-0.473052 c -1.304679,0 -2.365263,1.060584 -2.365263,2.365263 0,1.304678 1.060584,2.365262 2.365263,2.365262 1.304678,0 2.365262,-1.060584 2.365262,-2.365262 0,-1.304679 -1.060584,-2.365263 -2.365262,-2.365263 z"
     opacity="0.07"
     id="path6"
     style="stroke-width:0.946105" />
  <linearGradient
     id="yOIoQFQSxgltO8Uv2xJFsc"
     x1="35"
     x2="35"
     y1="34.667"
     y2="39.007"
     gradientUnits="userSpaceOnUse"
     gradientTransform="matrix(0.94610505,0,0,0.94610505,0.32334676,0.32336969)">
    <stop
       offset="0"
       stop-color="#75ff8a"
       id="stop6" />
    <stop
       offset="1"
       stop-color="#1ee446"
       id="stop7" />
  </linearGradient>
  <circle
     cx="33.437023"
     cy="35.329258"
     r="1.8922101"
     fill="url(#yOIoQFQSxgltO8Uv2xJFsc)"
     id="circle7"
     style="fill:url(#yOIoQFQSxgltO8Uv2xJFsc);stroke-width:0.946105" />
  <path
     d="m 23.029868,9.7844202 c 6.269838,0 11.353261,3.3889478 11.353261,7.5688408 0,4.179892 -5.083423,7.56884 -11.353261,7.56884 -6.269838,0 -11.353261,-3.388948 -11.353261,-7.56884 0,-4.179893 5.083423,-7.5688408 11.353261,-7.5688408 m 0,9.4610508 c 2.089946,0 3.78442,-0.846764 3.78442,-1.89221 0,-1.045446 -1.694474,-1.89221 -3.78442,-1.89221 -2.089946,0 -3.78442,0.846764 -3.78442,1.89221 0,1.045446 1.694474,1.89221 3.78442,1.89221 m 0,-10.4071558 c -6.781681,0 -12.299366,3.8194258 -12.299366,8.5149458 0,4.695519 5.517685,8.514945 12.299366,8.514945 6.781681,0 12.299366,-3.819426 12.299366,-8.514945 0,-4.69552 -5.517685,-8.5149458 -12.299366,-8.5149458 z m 0,9.4610508 c -1.831659,0 -2.838315,-0.710525 -2.838315,-0.946105 0,-0.235581 1.006656,-0.946105 2.838315,-0.946105 1.831659,0 2.838315,0.710524 2.838315,0.946105 0,0.23558 -1.006656,0.946105 -2.838315,0.946105 z"
     opacity="0.05"
     id="path7"
     style="stroke-width:0.946105" />
  <path
     d="m 23.029868,9.7844202 c 6.269838,0 11.353261,3.3889478 11.353261,7.5688408 0,4.179892 -5.083423,7.56884 -11.353261,7.56884 -6.269838,0 -11.353261,-3.388948 -11.353261,-7.56884 0,-4.179893 5.083423,-7.5688408 11.353261,-7.5688408 m 0,9.4610508 c 2.089946,0 3.78442,-0.846764 3.78442,-1.89221 0,-1.045446 -1.694474,-1.89221 -3.78442,-1.89221 -2.089946,0 -3.78442,0.846764 -3.78442,1.89221 0,1.045446 1.694474,1.89221 3.78442,1.89221 m 0,-9.9341033 c -6.521502,0 -11.826313,3.6074983 -11.826313,8.0418933 0,4.434394 5.304811,8.041893 11.826313,8.041893 6.521502,0 11.826313,-3.607499 11.826313,-8.041893 0,-4.434395 -5.304811,-8.0418933 -11.826313,-8.0418933 z m 0,9.4610503 c -1.895048,0 -3.311368,-0.749315 -3.311368,-1.419157 0,-0.669843 1.41632,-1.419158 3.311368,-1.419158 1.895048,0 3.311368,0.749315 3.311368,1.419158 0,0.669842 -1.41632,1.419157 -3.311368,1.419157 z"
     opacity="0.07"
     id="path8"
     style="stroke-width:0.946105" />
  <linearGradient
     id="yOIoQFQSxgltO8Uv2xJFsd"
     x1="24"
     x2="24"
     y1="8.75"
     y2="29.408"
     gradientUnits="userSpaceOnUse"
     gradientTransform="matrix(0.94610505,0,0,0.94610505,0.32334676,0.32336969)">
    <stop
       offset="0"
       stop-color="#75daff"
       id="stop8" />
    <stop
       offset="1"
       stop-color="#1ea2e4"
       id="stop9" />
  </linearGradient>
  <path
     fill="url(#yOIoQFQSxgltO8Uv2xJFsd)"
     d="m 23.029868,9.7844202 c -6.269838,0 -11.353261,3.3889478 -11.353261,7.5688408 0,4.179892 5.083423,7.56884 11.353261,7.56884 6.269838,0 11.353261,-3.388948 11.353261,-7.56884 0,-4.179893 -5.083423,-7.5688408 -11.353261,-7.5688408 z m 0,9.4610508 c -2.089946,0 -3.78442,-0.846764 -3.78442,-1.89221 0,-1.045446 1.694474,-1.89221 3.78442,-1.89221 2.089946,0 3.78442,0.846764 3.78442,1.89221 0,1.045446 -1.694474,1.89221 -3.78442,1.89221 z"
     id="path9"
     style="fill:url(#yOIoQFQSxgltO8Uv2xJFsd);stroke-width:0.946105" />
  <path
     d="m 30.437871,30.182445 -4.94813,-8.571712 c -0.510897,-0.889338 -1.43808,-1.419157 -2.459873,-1.419157 -1.021793,0 -1.948976,0.529819 -2.459873,1.419157 l -4.94813,8.571712 -0.245987,0.416286 h 1.097482 l 4.919746,-8.514945 c 0.35952,-0.633891 1.002872,-0.946105 1.636762,-0.946105 0.63389,0 1.277242,0.312214 1.636762,0.946105 l 4.919746,8.514945 h 1.097482 z"
     opacity="0.05"
     id="path10"
     style="stroke-width:0.946105" />
  <path
     d="M 30.031045,30.418971 25.082916,21.84726 c -0.435208,-0.737962 -1.201553,-1.182632 -2.053048,-1.182632 -0.851495,0 -1.61784,0.44467 -2.053048,1.182632 l -4.948129,8.571711 -0.104072,0.17976 h 0.548741 l 4.919746,-8.514945 c 0.35952,-0.633891 1.002872,-0.946105 1.636762,-0.946105 0.63389,0 1.277242,0.312214 1.636762,0.946105 l 4.919746,8.514945 h 0.548741 z"
     opacity="0.07"
     id="path11"
     style="stroke-width:0.946105" />
  <linearGradient
     id="yOIoQFQSxgltO8Uv2xJFse"
     x1="24"
     x2="24"
     y1="22.938"
     y2="31.81"
     gradientUnits="userSpaceOnUse"
     gradientTransform="matrix(0.94610505,0,0,0.94610505,0.32334676,0.32336969)">
    <stop
       offset="0"
       stop-color="#899198"
       id="stop11" />
    <stop
       offset="1"
       stop-color="#787e85"
       id="stop12" />
  </linearGradient>
  <path
     fill="url(#yOIoQFQSxgltO8Uv2xJFse)"
     d="m 21.391214,22.025127 -4.950022,8.573604 h 13.177352 l -4.950022,-8.573604 c -0.728501,-1.262104 -2.548807,-1.262104 -3.277308,0 z"
     id="path12"
     style="fill:url(#yOIoQFQSxgltO8Uv2xJFse);stroke-width:0.946105" />
  <path
     id="path2-7"
     style="display:inline;stroke:#ffffff;stroke-width:1.2428;stroke-dasharray:none;stroke-opacity:1"
     sodipodi:type="inkscape:offset"
     inkscape:radius="0.46688884"
     inkscape:original="M 31.25 30.457031 C 29.385785 30.457031 28.135207 31.910164 27.710938 32.726562 L 25.503906 37.40625 L 22.455078 31.091797 C 22.120804 30.497176 21.368751 30.283484 20.777344 30.611328 C 20.179509 30.942386 19.965816 31.695135 20.296875 32.292969 L 24.410156 40.521484 C 24.62872 40.910399 25.037605 41.151083 25.484375 41.154297 C 25.915072 41.157497 26.339461 40.920856 26.564453 40.535156 L 29.875 33.90625 C 29.8814 33.89665 30.42396 32.925781 31.25 32.925781 C 32.249605 32.925781 32.455448 33.742316 32.484375 34.160156 L 32.484375 39.919922 C 32.484375 40.173841 32.561578 40.41205 32.693359 40.611328 C 32.738359 40.675618 32.789104 40.737072 32.84375 40.794922 C 33.014101 40.962058 33.229641 41.080694 33.470703 41.128906 C 33.547843 41.144976 33.635182 41.154297 33.71875 41.154297 C 33.80232 41.154297 33.889657 41.145016 33.966797 41.128906 C 34.288213 41.064616 34.564147 40.871676 34.744141 40.611328 C 34.785931 40.543828 34.823335 40.472362 34.855469 40.398438 C 34.916539 40.253799 34.953125 40.090273 34.953125 39.919922 L 34.953125 34.160156 C 34.953125 33.478754 35.506097 32.925781 36.1875 32.925781 C 36.868903 32.925781 37.421875 33.478754 37.421875 34.160156 L 37.421875 39.919922 C 37.421875 40.601325 37.974847 41.154297 38.65625 41.154297 C 38.73982 41.154297 38.825204 41.145016 38.902344 41.128906 C 39.22376 41.064616 39.501647 40.871676 39.681641 40.611328 C 39.723431 40.543828 39.760835 40.472363 39.792969 40.398438 C 39.854039 40.253799 39.888672 40.090273 39.888672 39.919922 L 39.888672 34.160156 C 39.888672 33.478754 40.441644 32.925781 41.123047 32.925781 C 41.80445 32.925781 42.357422 33.478754 42.357422 34.160156 L 42.357422 39.919922 C 42.357422 40.601325 42.910394 41.154297 43.591797 41.154297 C 44.273199 41.154297 44.826172 40.601325 44.826172 39.919922 L 44.826172 34.160156 C 44.826172 32.119162 43.164041 30.457031 41.123047 30.457031 C 40.171655 30.457031 39.31194 30.830469 38.65625 31.421875 C 38.000561 30.830469 37.138892 30.457031 36.1875 30.457031 C 35.239322 30.457031 34.382944 30.823917 33.730469 31.412109 C 33.145503 30.856058 32.342816 30.457031 31.25 30.457031 z "
     d="m 31.25,29.990234 c -1.053418,0 -1.935085,0.414281 -2.595703,0.927735 -0.660618,0.513453 -1.110999,1.119571 -1.357422,1.59375 a 0.46693553,0.46693553 0 0 0 -0.0078,0.01563 L 25.498047,36.322266 22.875,30.888672 a 0.46693553,0.46693553 0 0 0 -0.01367,-0.02539 c -0.457445,-0.813723 -1.497106,-1.111083 -2.310547,-0.660156 -0.818977,0.453518 -1.114881,1.498781 -0.662109,2.316406 l 4.103515,8.210938 a 0.46693553,0.46693553 0 0 0 0.01172,0.01953 c 0.3001,0.534 0.864174,0.866688 1.476563,0.871094 0.603978,0.0045 1.174462,-0.316936 1.486328,-0.851563 a 0.46693553,0.46693553 0 0 0 0.01563,-0.02539 l 3.292969,-6.59375 c 0.01185,-0.01978 0.126987,-0.221376 0.3125,-0.410157 0.192539,-0.195931 0.432005,-0.347656 0.662109,-0.347656 0.372675,0 0.493422,0.110505 0.599609,0.261719 0.105027,0.149561 0.156535,0.379487 0.167969,0.533203 v 5.732422 c 0,0.348556 0.107182,0.677133 0.287109,0.949219 a 0.46693553,0.46693553 0 0 0 0.0059,0.0098 c 0.0594,0.08487 0.12445,0.163378 0.193359,0.236328 a 0.46693553,0.46693553 0 0 0 0.01367,0.01367 c 0.232045,0.227666 0.528316,0.39043 0.861328,0.457031 0.109568,0.02257 0.222889,0.03516 0.339844,0.03516 0.116809,0 0.229974,-0.01247 0.339844,-0.03516 0.447187,-0.08945 0.824747,-0.353792 1.070312,-0.708984 a 0.46693553,0.46693553 0 0 0 0.01172,-0.01953 c 0.0538,-0.08689 0.101496,-0.178928 0.142578,-0.273438 a 0.46693553,0.46693553 0 0 0 0.002,-0.0039 c 0.08413,-0.199252 0.134766,-0.422957 0.134766,-0.660156 v -5.759766 c 0,-0.428808 0.338769,-0.767578 0.767578,-0.767578 0.428809,0 0.767578,0.33877 0.767578,0.767578 v 5.759766 c 0,0.933995 0.767177,1.701172 1.701172,1.701172 0.116801,0 0.229529,-0.01278 0.337891,-0.03516 0.44683,-0.08938 0.825801,-0.352492 1.072265,-0.708984 a 0.46693553,0.46693553 0 0 0 0.01172,-0.01953 c 0.05379,-0.08689 0.101495,-0.178924 0.142578,-0.273438 a 0.46693553,0.46693553 0 0 0 0.002,-0.0039 c 0.08552,-0.202538 0.132813,-0.426525 0.132813,-0.660156 v -5.759766 c 0,-0.428808 0.338769,-0.767578 0.767578,-0.767578 0.428809,0 0.767578,0.33877 0.767578,0.767578 v 5.759766 c 0,0.933995 0.767177,1.701172 1.701172,1.701172 0.933994,0 1.701172,-0.767177 1.701172,-1.701172 v -5.759766 c 0,-2.294473 -1.875449,-4.169922 -4.169922,-4.169922 -0.94064,0 -1.773968,0.363019 -2.466797,0.888672 -0.69342,-0.525948 -1.527963,-0.888672 -2.46875,-0.888672 -0.934161,0 -1.763146,0.356408 -2.453125,0.876953 C 33.099281,30.367815 32.295803,29.990234 31.25,29.990234 Z"
     transform="matrix(1.0166132,0,0,1.033655,1.037254,2.2996251)" />
  <path
     d="m 32.851936,33.829769 c -1.895751,0 -3.167212,1.477378 -3.598659,2.307587 l -2.245485,4.758989 -3.098572,-6.422674 c -0.339928,-0.60468 -1.104764,-0.820402 -1.706176,-0.487012 -0.607948,0.336658 -0.82694,1.101497 -0.490281,1.709444 l 4.183727,8.367453 c 0.222261,0.395494 0.637364,0.640634 1.091692,0.643902 0.437983,0.0033 0.86943,-0.238603 1.098228,-0.630827 l 3.366593,-6.739722 c 0.0065,-0.0098 0.558919,-0.996904 1.398933,-0.996904 1.016515,0 1.225701,0.830209 1.255118,1.255117 v 5.857219 c 0,0.258214 0.07845,0.500085 0.212455,0.702735 0.04576,0.06538 0.09805,0.127478 0.153622,0.186307 0.173232,0.169963 0.392224,0.2909 0.637364,0.339927 0.07845,0.01634 0.166696,0.02614 0.251678,0.02614 0.08498,0 0.173233,-0.0098 0.251677,-0.02614 0.326854,-0.06538 0.607947,-0.261482 0.790986,-0.526234 0.0425,-0.06864 0.08172,-0.140547 0.114397,-0.215723 0.0621,-0.147085 0.09805,-0.31378 0.09805,-0.487012 v -5.857219 c 0,-0.692928 0.562188,-1.255117 1.255118,-1.255117 0.692929,0 1.255117,0.562189 1.255117,1.255117 v 5.857219 c 0,0.692929 0.562189,1.255117 1.255119,1.255117 0.08498,0 0.173233,-0.0098 0.251678,-0.02614 0.326853,-0.06538 0.607946,-0.261483 0.790985,-0.526235 0.0425,-0.06864 0.08172,-0.140547 0.114397,-0.215723 0.0621,-0.147085 0.09805,-0.31378 0.09805,-0.487012 V 37.59513 c 0,-0.692929 0.562188,-1.255118 1.255118,-1.255118 0.69293,0 1.255118,0.562189 1.255118,1.255118 v 5.857218 c 0,0.692929 0.562189,1.255118 1.255119,1.255118 0.692929,0 1.255118,-0.562189 1.255118,-1.255118 V 37.59513 c 0,-2.075521 -1.689834,-3.765354 -3.765355,-3.765354 -0.967486,0 -1.843454,0.37915 -2.510236,0.98056 -0.666781,-0.60141 -1.542749,-0.98056 -2.510236,-0.98056 -0.964217,0 -1.833649,0.372613 -2.497162,0.970755 -0.594862,-0.565457 -1.411997,-0.970755 -2.523299,-0.970755 z"
     id="path1-3"
     style="display:inline;stroke-width:0.836719;stroke-dasharray:none" />
</svg>
